<?xml version="1.0" encoding="UTF-8" standalone="no"?>
<svg
   width="256"
   height="256"
   viewBox="0 0 256 256"
   version="1.1"
   id="svg1"
   sodipodi:docname="logo.svg"
   inkscape:version="1.4.2 (f4327f4, 2025-05-13)"
   xmlns:inkscape="http://www.inkscape.org/namespaces/inkscape"
   xmlns:sodipodi="http://sodipodi.sourceforge.net/DTD/sodipodi-0.dtd"
   xmlns="http://www.w3.org/2000/svg"
   xmlns:svg="http://www.w3.org/2000/svg">
  <defs
     id="defs1" />
  <sodipodi:namedview
     id="namedview1"
     pagecolor="#ffffff"
     bordercolor="#000000"
     borderopacity="0.25"
     inkscape:showpageshadow="2"
     inkscape:pageopacity="0.0"
     inkscape:pagecheckerboard="0"
     inkscape:deskcolor="#d1d1d1"
     inkscape:zoom="6.671875"
     inkscape:cx="162.02342"
     inkscape:cy="71.943794"
     inkscape:window-width="3840"
     inkscape:window-height="1943"
     inkscape:window-x="-11"
     inkscape:window-y="43"
     inkscape:window-maximized="1"
     inkscape:current-layer="svg1" />
  <path
     style="fill:#9bfce3;stroke-width:0.999166"
     d="M 115.63258,146.10122 C 95.480917,141.2196 77.163233,123.66529 77.522624,105.44997 l 0.138601,-7.024853 7.879067,0.04974 c 15.673308,0.09898 25.459168,-5.661219 32.408978,-19.076663 6.14637,-11.864509 2.25292,-37.131769 -7.50769,-48.722558 l -2.56466,-3.045553 7.18714,-3.081139 c 8.42062,-3.60993 26.82292,-1.397524 35.53377,1.384379 l 4.71936,1.478639 -2.39263,3.871991 c -5.6,9.062495 -11.8568,26.418197 -10.61559,36.97072 0.9719,8.262919 5.08024,16.496568 10.79144,21.627416 6.74778,6.062097 13.7082,8.492861 24.3191,8.492861 h 8.45873 l 0.69841,5.02965 c 0.78829,5.67692 -1.67197,17.12208 -5.71465,22.07895 -7.09794,8.70305 -21.4879,20.93161 -33.88927,23.85326 -7.7643,1.82919 -23.69496,-1.3836 -31.34015,-3.23559 z m 36.27582,-19.71835 c 6.90574,-2.04918 9.11124,-5.89925 9.31673,-10.47746 0.0966,-2.15193 -0.83306,-1.49773 -2.49022,1.02943 -3.31713,5.05865 -14.43771,7.45396 -20.04783,2.40594 -16.15626,-14.53751 -5.17765,-7.93076 -2.30438,-9.97927 2.17713,-1.55219 9.28339,-6.77527 9.96609,-9.837688 1.4854,-6.66321 -3.96897,-12.789526 -14.92059,-12.155246 -9.14964,0.529916 -14.48442,3.778273 -14.48442,9.732652 0,2.820417 8.24936,9.266142 11.5114,10.084242 2.63511,0.66085 3.21657,5.39683 1.3739,9.43787 -3.25273,7.13342 -18.51542,8.38692 -23.22103,1.21084 -1.65715,-2.52716 -3.31836,-4.13961 -3.52179,-1.99514 -0.26203,2.76239 -0.6102,2.29265 1.93425,5.03262 3.57413,3.84877 7.19944,4.71911 13.3455,4.71911 5.40532,0 5.02733,-3.39354 9.91619,-4.08837 l 3.63351,-0.51641 6.54291,2.04267 c 2.33196,2.0581 -0.78369,3.25265 4.72844,4.00764 0.31253,0.0552 5.99523,0.15551 8.72134,-0.65343 z"
     id="path16"
     sodipodi:nodetypes="cscssscsscsssscsssccssssssssssssssscsc" />
  <path
     style="fill:#63edca"
     d="m 65.79099,112.30264 c -123.47365,-103.345436 -123.47365,-103.345436 0,0 z m -17.18205,-2.9844 c -3.19393,-3.79576 -6.474032,-12.525948 -7.278746,-19.372798 -1.318106,-11.21503 4.137626,-20.89492 21.935246,-38.91887 15.05074,-15.24216 26.48025,-22.41601 34.08787,-21.39562 2.32351,0.31165 5.34435,-0.0349 7.25176,-0.83183 3.14478,-1.31397 3.3676,-1.24915 5.85109,1.7023 9.781,11.62407 13.68138,36.91205 7.52702,48.80123 -6.92011,13.36851 -16.75858,19.19896 -32.23202,19.10128 l -7.69121,-0.0486 -0.39069,3.723638 c -0.27166,2.58918 -0.44105,1.89565 -0.55598,-2.27636 -0.32088,-11.648218 2.19771,-26.194288 8.00254,-46.218478 1.50221,-5.18198 0.59314,-6.35032 -2.60403,-3.34673 -3.28405,3.0852 -5.82004,9.77755 -10.4982,27.70424 C 64.38174,107.18689 56.12715,118.25308 48.60894,109.3182 Z m 57.98055,-24.480978 c 1.15068,-0.80597 2.82581,-3.01148 3.72251,-4.90113 4.40803,-9.28924 -1.04595,-20.63347 -9.91998,-20.63347 -3.58233,0 -9.10341,5.63741 -9.95221,10.1619 -0.89483,4.76988 1.08222,11.54404 4.21707,14.44932 2.99273,2.77356 8.66448,3.21246 11.93261,0.92338 z m 98.60642,24.215378 c -4.45263,-4.61039 -8.63386,-14.215468 -12.73295,-29.249988 -5.24541,-19.23894 -7.25181,-24.75357 -10.36126,-28.47819 -4.40569,-5.27731 -5.43314,-3.17546 -2.56468,5.24654 3.80362,11.16772 8.5631,27.665945 8.99184,39.999395 -0.0735,3.849803 -2.49919,14.906703 -2.65062,1.804553 h -8.45873 c -13.56363,0 -17.53273,-2.518578 -24.26956,-8.575568 -5.71374,-5.13714 -9.82391,-13.38087 -10.79624,-21.6539 -1.25349,-10.66517 4.31417,-29.68199 11.0021,-37.57868 2.68119,-3.16579 2.80543,-3.20231 5.73654,-1.68658 1.84195,0.95251 4.09116,1.30875 5.83916,0.92482 1.56375,-0.34345 4.48253,-0.31692 6.48619,0.059 12.48266,2.34176 44.66676,33.53492 50.11121,48.56829 3.93437,10.86369 -3.52338,33.870338 -10.97928,33.870338 -1.21821,0 -3.62739,-1.4625 -5.35372,-3.25 z M 169.42116,83.324782 c 5.25872,-5.48892 4.5802,-17.47075 -1.24902,-22.05601 -7.11475,-5.59647 -16.22978,0.88123 -16.22978,11.53389 0,11.5293 10.47337,17.83421 17.4788,10.52212 z"
     id="path15"
     sodipodi:nodetypes="sscssscssccsssssccssssssssssscsssssscssssssss" />
  <path
     style="fill:#108776"
     d="M 119.2647,154.27314 C 95.60086,150.008 77.573403,133.95648 72.058771,112.2413 l -1.817776,-7.15793 -2.171155,3.51301 c -3.854574,6.23683 -9.65172,10.70675 -13.880365,10.70253 -10.717239,-0.0107 -19.56539,-14.86493 -19.654716,-32.996258 -0.03608,-7.32445 0.333712,-9.23496 2.673885,-13.81428 3.907856,-7.64702 10.822316,-16.31494 21.712547,-27.2187 15.754749,-15.77432 27.761758,-22.96701 38.339639,-22.96701 2.40264,0 6.92731,-0.88039 10.05484,-1.95641 13.73339,-4.72498 31.67152,-4.95582 46.97134,-0.60447 4.48544,1.27569 10.88045,2.54816 14.21113,2.82772 3.98139,0.33417 8.13948,1.56014 12.13877,3.57897 17.33411,8.75023 43.87943,37.00118 47.96158,51.04325 1.94091,6.67651 1.30716,15.99797 -1.67747,24.672968 -6.69,19.4448 -19.90725,23.13036 -29.47866,8.21997 -1.65,-2.57038 -3.25807,-4.69785 -3.57349,-4.72771 -0.31543,-0.0299 -1.07616,2.6486 -1.69051,5.95214 -3.47654,18.69414 -18.85125,34.54618 -39.736,40.96965 -8.01494,2.46513 -24.92584,3.48169 -33.17766,1.9944 z m 26.17766,-7.47489 c 21.23946,-4.45928 36.95456,-19.5646 40.60827,-39.03258 2.08877,-11.129518 -0.91879,-34.767858 -6.51361,-51.194668 -2.86846,-8.422 -1.84101,-10.52385 2.56468,-5.24654 3.10945,3.72462 5.11585,9.23925 10.36126,28.47819 5.57404,20.444288 12.2832,32.499998 18.08667,32.499998 7.4559,0 14.91365,-23.006658 10.97928,-33.870348 -2.38835,-6.59476 -9.89852,-16.48947 -21.0578,-27.74381 -15.04808,-15.17626 -28.52066,-23.11011 -35.4883,-20.89867 -1.21882,0.38684 -4.59155,-0.37051 -8.35494,-1.8761 -14.07311,-5.63013 -34.43225,-5.70039 -49.12638,-0.16954 -4.40811,1.65921 -7.55484,2.23461 -10.24628,1.87362 -7.50154,-1.00617 -19.020606,6.24922 -33.98978,21.40877 -21.890659,22.16905 -25.791061,32.25929 -19.239081,49.771028 4.276141,11.42901 9.505687,14.27389 15.174682,8.25505 4.54192,-4.82221 8.391591,-14.169838 12.812558,-31.110968 4.678159,-17.92669 7.214146,-24.61904 10.498194,-27.70424 3.197175,-3.00359 4.106242,-1.83525 2.604033,3.34673 -6.875589,23.71786 -9.340155,41.46192 -7.391901,53.219258 2.149275,12.97046 9.304858,24.05257 20.249475,31.36111 13.52036,9.02855 30.70307,12.15376 47.46897,8.63371 z m -35,-20.93792 c -4.59572,-1.69343 -9.5,-6.65182 -9.5,-9.60484 0,-3.5407 2.55851,-3.15903 6.72001,1.00247 3.77923,3.77923 4.41845,4.04469 9.73927,4.04469 4.96066,0 6.07129,-0.37672 8.61764,-2.92308 4.2208,-4.2208 3.98236,-8.05165 -0.65667,-10.54993 -7.10136,-3.82434 -10.21844,-10.298518 -7.44942,-15.472478 2.21797,-4.14431 15.07109,-6.50485 21.71407,-3.9879 9.94437,3.76782 9.39315,13.806668 -1.06743,19.440058 -4.2688,2.2989 -4.8107,5.70666 -1.56385,9.83437 4.58513,5.82904 14.36739,5.3603 19.91153,-0.95412 5.0601,-5.76315 8.63655,-1.96416 3.86345,4.10385 -5.84991,7.43695 -19.75237,8.66241 -26.50609,2.33642 l -2.17749,-2.03958 -3.5021,2.67118 c -4.37586,3.33763 -12.29489,4.25375 -18.14292,2.09889 z M 94.656873,83.913882 c -3.13485,-2.90528 -5.111903,-9.67944 -4.217068,-14.44932 0.848801,-4.52449 6.369885,-10.1619 9.952215,-10.1619 6.43752,0 11.55034,6.2499 11.55034,14.1191 0,3.89641 -2.63223,9.50988 -5.35287,11.4155 -3.26813,2.28908 -8.93989,1.85018 -11.932617,-0.92338 z m 10.714057,-13.18265 c 1.97317,-1.97317 1.97354,-2.8836 0.002,-4.85516 -1.97245,-1.97243 -5.43057,-0.43643 -5.43057,2.41208 0,1.47715 2.06025,3.70852 3.67857,3.9841 0.0982,0.0167 0.88572,-0.67673 1.75,-1.54102 z m 51.6883,13.94073 c -6.65263,-4.65969 -6.65263,-19.07892 0,-23.73861 5.08328,-3.56046 12.25041,-0.98664 14.87118,5.34046 0.73627,1.77752 1.06886,5.32902 0.80125,8.55602 -0.35958,4.33607 -1.06823,6.15453 -3.3105,8.49495 -3.30707,3.45183 -8.54254,4.02238 -12.36193,1.34718 z m 10.69381,-16.68696 c -0.52599,-3.69474 -6.71099,-3.24308 -6.79537,0.49623 -0.008,0.37322 0.69094,1.38482 1.55414,2.24802 2.15645,2.15645 5.67653,0.31338 5.24123,-2.74425 z"
     id="path14" />
</svg>
